<?xml version="1.0" encoding="utf-8"?>
<!-- Generator: Adobe Illustrator 21.1.0, SVG Export Plug-In . SVG Version: 6.00 Build 0)  -->
<svg version="1.1" id="Capa_1" xmlns="http://www.w3.org/2000/svg" xmlns:xlink="http://www.w3.org/1999/xlink" x="0px" y="0px"
	 viewBox="0 0 167 50" style="enable-background:new 0 0 167 50;" xml:space="preserve">
<style type="text/css">
	.st0{fill:#D2002E;}
</style>
<g>
	<g>
		<g>
			<path class="st0" d="M56.6,44.5l-0.5,2.1h1.1l0.5-2.1H56.6z M59.9,44.5l-0.5,2.1h1l0.5-2.1H59.9z M63.1,44.5l-0.4,2.1h1l0.5-2.1
				H63.1z M66.3,44.5l-0.5,2.1h1l0.5-2.1H66.3z M69.4,44.5L69,46.6h1l0.5-2.1H69.4z M72.3,44.5c0,0.1,0,0.2,0,0.3c0,1.3,0.7,2,1.9,2
				c1.4,0,2.4-0.9,2.9-2.3H76c-0.3,0.8-0.8,1.4-1.6,1.4c-0.6,0-1-0.3-1-1.1c0-0.1,0-0.2,0-0.3L72.3,44.5z M79.2,44.5l0.3,2.2h0.9
				l1.3-2.2h-1c-0.2,0.4-0.3,0.6-0.5,1c0-0.2,0-0.6-0.1-1L79.2,44.5z M83.9,44.5c0,0.2,0,0.3,0,0.5c0,1.2,0.6,1.8,1.4,1.8
				c0.8,0,1.4-0.4,1.8-1c0,0.5,0.1,0.8,0.4,1.1l0.8-0.6c-0.3-0.3-0.4-0.6-0.2-1.4l0.1-0.3h-1l0,0.2c-0.3,0.7-1,1.2-1.5,1.2
				c-0.5,0-0.7-0.3-0.7-0.9c0-0.1,0-0.3,0-0.5H83.9z M90.4,44.5l-0.1,0.6c-0.1,0.3-0.1,0.5-0.1,0.8c0,0.6,0.4,0.9,1.1,0.9
				c0.4,0,0.8-0.1,1.1-0.2v-0.6C92.2,46,92,46,91.8,46c-0.4,0-0.5-0.1-0.5-0.5c0-0.2,0-0.3,0.1-0.6l0.1-0.4H90.4z M94.3,44.5
				l-0.5,2.1h1.1l0.5-2.1H94.3z M97.8,44.5l0.3,2.2h0.9l1.3-2.2h-1c-0.2,0.4-0.3,0.6-0.5,1c0-0.2,0-0.6-0.1-1L97.8,44.5z
				 M102.7,44.5c0,0.1,0,0.2,0,0.2c0,1.3,0.8,2,1.9,2c1,0,1.7-0.3,2.3-0.8l-0.4-0.6c-0.5,0.4-1,0.6-1.6,0.6c-0.6,0-1.1-0.4-1.1-1.1
				c0-0.1,0-0.2,0-0.3H102.7z M115.8,44.5c0,0.8-0.8,1.4-1.9,1.4c-0.8,0-1.3-0.2-1.9-0.6l-0.5,0.8c0.6,0.4,1.3,0.6,2.2,0.6
				c1.9,0,3.1-1,3.3-2.3L115.8,44.5z M118.6,44.5c0,0.1,0,0.2,0,0.3c0,1.3,0.7,2,1.9,2c1.4,0,2.4-0.9,2.9-2.3h-1.1
				c-0.3,0.8-0.8,1.4-1.6,1.4c-0.6,0-1-0.3-1-1.1c0-0.1,0-0.2,0-0.3L118.6,44.5z M125.3,44.5l-0.2,0.9c-0.1,0.2-0.1,0.5-0.1,0.6
				c0,0.5,0.3,0.8,0.9,0.8c0.3,0,0.5,0,0.7-0.1l-0.1-0.7c-0.1,0-0.1,0-0.2,0c-0.2,0-0.3-0.1-0.3-0.3c0-0.1,0-0.3,0.1-0.6l0.1-0.6
				H125.3z M128.5,44.5l-0.1,0.3c-0.1,0.3-0.1,0.6-0.1,0.8c0,0.8,0.5,1.1,1.2,1.1c0.7,0,1.4-0.3,2-1.1c0,0.5,0.1,0.8,0.4,1.1
				l0.8-0.5c-0.2-0.3-0.3-0.7-0.1-1.3l0.1-0.5h-1l0,0.2c-0.5,0.8-1.3,1.3-1.8,1.3c-0.4,0-0.5-0.2-0.5-0.6c0-0.2,0-0.4,0.1-0.7l0-0.1
				H128.5z M134.9,44.5l-0.1,0.6c-0.1,0.3-0.1,0.5-0.1,0.8c0,0.6,0.4,0.9,1.1,0.9c0.4,0,0.8-0.1,1.1-0.2v-0.6
				c-0.2,0.1-0.4,0.1-0.6,0.1c-0.4,0-0.5-0.1-0.5-0.5c0-0.2,0-0.3,0.1-0.6l0.1-0.4H134.9z M138.8,44.5l-0.5,2.1h1.1l0.5-2.1H138.8z
				 M141.7,44.5c0,0.1,0,0.2,0,0.3c0,1.3,0.7,2,1.9,2c1.4,0,2.4-0.9,2.9-2.3h-1.1c-0.3,0.8-0.8,1.4-1.6,1.4c-0.6,0-1-0.3-1-1.1
				c0-0.1,0-0.2,0-0.3L141.7,44.5z M148.4,44.5l-0.5,2.1h1l0.5-2.1H148.4z M151.6,44.5l-0.4,2.1h1l0.5-2.1H151.6z M157,44.5
				c0.2,0.2,0.3,0.3,0.3,0.6c0,0.5-0.5,0.9-1.2,0.9c-0.6,0-1.2-0.2-1.7-0.5l-0.4,0.8c0.5,0.4,1.3,0.6,2,0.6c1.5,0,2.5-0.8,2.5-2
				c0-0.1,0-0.2,0-0.3H157z M58.1,42.1l-0.5,2.4h-1.1l0.5-2.4H58.1z M62.1,42.1c-0.3,0.2-0.6,0.5-0.8,0.8l-0.3,1.5h-1l0.4-1.8
				c0-0.2,0.1-0.4,0.1-0.5L62.1,42.1z M64.6,42.1c0,0.1,0,0.2-0.1,0.3l-0.4,2h-1l0.3-1.6c0.1-0.3,0.1-0.4,0.1-0.6c0-0.1,0-0.1,0-0.1
				L64.6,42.1z M68.5,42.1c-0.3,0.2-0.6,0.5-0.8,0.8l-0.3,1.5h-1l0.4-1.8c0-0.2,0.1-0.4,0.1-0.5L68.5,42.1z M71,42.1
				c0,0.1,0,0.2-0.1,0.3l-0.4,2h-1l0.3-1.6c0.1-0.3,0.1-0.4,0.1-0.6c0-0.1,0-0.1,0-0.1L71,42.1z M74.3,42.1
				c-0.5,0.5-0.8,1.4-0.9,2.4l-1.1,0c0-0.9,0.3-1.7,0.8-2.4L74.3,42.1z M77.3,42.1c0.1,0.2,0.1,0.5,0.1,0.7c0,0.6-0.1,1.1-0.3,1.6
				l-1.1,0c0.2-0.5,0.3-1.1,0.3-1.7c0-0.3-0.1-0.5-0.1-0.7L77.3,42.1z M79.9,42.1l0.3,2.3c0,0,0,0.1,0,0.1h-1l-0.4-2.4H79.9z
				 M83.1,42.1l-1.4,2.4l-1,0c0,0,0-0.1,0.1-0.1l1.2-2.2H83.1z M86,42.1c-0.1,0.1-0.2,0.2-0.3,0.3c-0.4,0.5-0.7,1.3-0.7,2.1h-1.1
				c0.1-0.9,0.4-1.7,0.9-2.4L86,42.1z M88.7,42.1c0,0.1-0.1,0.3-0.1,0.4l-0.4,1.9h-1l0.5-2.4L88.7,42.1z M91.9,42.1l-0.5,2.4h-1
				l0.5-2.4H91.9z M95.9,42.1l-0.5,2.4h-1.1l0.5-2.4H95.9z M98.5,42.1l0.3,2.3c0,0,0,0.1,0,0.1h-1l-0.4-2.4H98.5z M101.7,42.1
				l-1.4,2.4l-1,0c0,0,0-0.1,0.1-0.1l1.2-2.2H101.7z M104.7,42.1c-0.3,0.3-0.5,0.7-0.6,1.3c0.1,0,0.4,0,0.5,0c0.9,0,1.3-0.1,1.6-0.4
				c0.2-0.2,0.3-0.4,0.3-0.6c0-0.1,0-0.2,0-0.2l1.1,0c0,0.1,0,0.1,0,0.2c0,0.5-0.2,0.9-0.5,1.2c-0.5,0.4-1.2,0.7-2.4,0.7
				c-0.3,0-0.5,0-0.7,0c0,0.1,0,0.2-0.1,0.3l-1.1,0c0-0.8,0.3-1.7,0.8-2.3H104.7z M115.3,42.1l0.4,0.2c1,0.4,1.3,1,1.3,1.9
				c0,0.1,0,0.2,0,0.3l-1.2,0c0,0,0-0.1,0-0.1c0-0.6-0.2-0.9-1-1.2l-0.7-0.3c-0.5-0.2-0.9-0.4-1.1-0.8H115.3z M120.5,42.1
				c-0.5,0.5-0.8,1.4-0.9,2.4l-1.1,0c0-0.9,0.3-1.7,0.8-2.4L120.5,42.1z M123.5,42.1c0.1,0.2,0.1,0.5,0.1,0.7c0,0.6-0.1,1.1-0.3,1.6
				l-1.1,0c0.2-0.5,0.3-1.1,0.3-1.7c0-0.3-0.1-0.5-0.1-0.7L123.5,42.1z M126.8,42.1l-0.5,2.4h-1l0.5-2.4H126.8z M130,42.1l-0.5,2.4
				h-1l0.5-2.4H130z M133.3,42.1l-0.5,2.4h-1l0.5-2.4H133.3z M136.4,42.1l-0.5,2.4h-1l0.5-2.4H136.4z M140.4,42.1l-0.5,2.4h-1.1
				l0.5-2.4H140.4z M143.7,42.1c-0.5,0.5-0.8,1.4-0.9,2.4l-1.1,0c0-0.9,0.3-1.7,0.8-2.4L143.7,42.1z M146.7,42.1
				c0.1,0.2,0.1,0.5,0.1,0.7c0,0.6-0.1,1.1-0.3,1.6l-1.1,0c0.2-0.5,0.3-1.1,0.3-1.7c0-0.3,0-0.5-0.1-0.7L146.7,42.1z M150.6,42.1
				c-0.3,0.2-0.6,0.5-0.8,0.8l-0.3,1.5h-1l0.4-1.8c0-0.2,0.1-0.4,0.1-0.5L150.6,42.1z M153.1,42.1c0,0.1,0,0.2,0,0.3l-0.4,2h-1
				l0.3-1.6c0.1-0.3,0.1-0.4,0.1-0.6c0-0.1,0-0.1,0-0.1L153.1,42.1z M156,42.1c0,0.1,0,0.2,0,0.2c0,0.3,0.1,0.5,0.6,0.7l0.7,0.3
				c0.7,0.3,1,0.6,1.1,1.1l-1.4,0c-0.1-0.1-0.2-0.2-0.4-0.2l-0.6-0.3c-0.7-0.3-1.1-0.7-1.1-1.4c0-0.2,0-0.3,0.1-0.5L156,42.1z
				 M58.1,42.1l0.7-3.2h-1.1L57,42.1H58.1z M62.1,42.1c0.4-0.3,0.7-0.4,0.9-0.4c0.3,0,0.4,0.1,0.5,0.4h1.1c0,0,0-0.1,0-0.1
				c0-0.7-0.4-1.1-1.1-1.1c-0.8,0-1.5,0.4-2.1,1.1c0.1-0.5,0-0.8-0.1-1.1l-1,0.4c0.1,0.3,0.1,0.5,0.1,0.9L62.1,42.1z M68.5,42.1
				c0.4-0.3,0.7-0.4,0.9-0.4c0.3,0,0.4,0.1,0.5,0.4H71c0,0,0-0.1,0-0.1c0-0.7-0.4-1.1-1.1-1.1c-0.7,0-1.5,0.4-2.1,1.1
				c0.1-0.5,0-0.8-0.1-1.1l-1,0.4c0.1,0.3,0.1,0.5,0.1,0.9L68.5,42.1z M74.3,42.1c0.3-0.3,0.6-0.5,1-0.5c0.4,0,0.7,0.1,0.8,0.4
				l1.2,0c-0.2-0.8-0.8-1.3-1.8-1.3c-1,0-1.8,0.5-2.4,1.3L74.3,42.1z M79.9,42.1l-0.2-1.3l-1.1,0.2l0.2,1.1H79.9z M83.1,42.1
				l0.6-1.1l-1.1,0L82,42.1H83.1z M86,42.1c0.4-0.3,0.7-0.4,1.2-0.4c0.2,0,0.5,0.1,0.6,0.1l-0.1,0.3h1c0.1-0.3,0.2-0.6,0.2-0.8
				c-0.4-0.3-1-0.4-1.7-0.4c-0.9,0-1.6,0.3-2.2,0.9c-0.1,0.1-0.2,0.2-0.3,0.3L86,42.1z M91.9,42.1l0.1-0.4h1.2l0.4-0.8h-1.4
				c0.1-0.5,0.3-1.2,0.5-1.6l-1.1,0.2c-0.1,0.4-0.3,0.9-0.4,1.4h-0.7l-0.1,0.8H91l-0.1,0.4H91.9z M95.9,42.1l0.3-1.2L95,41.1
				l-0.2,1.1H95.9z M98.5,42.1l-0.2-1.3l-1.1,0.2l0.2,1.1H98.5z M101.7,42.1l0.6-1.1l-1.1,0l-0.6,1.1H101.7z M104.7,42.1
				c0.3-0.3,0.6-0.5,1-0.5c0.4,0,0.7,0.2,0.8,0.5l1.1,0c-0.1-0.8-0.7-1.3-1.7-1.3c-0.7,0-1.3,0.2-1.9,0.8c-0.2,0.1-0.3,0.3-0.4,0.5
				H104.7z M115.3,42.1l-0.4-0.2c-0.7-0.3-0.9-0.6-0.9-1.1c0-0.7,0.7-1.2,1.6-1.2c0.7,0,1.1,0.2,1.7,0.6l0.6-0.8
				c-0.5-0.4-1.3-0.7-2.1-0.7c-1.7,0-3,1-3,2.4c0,0.4,0.1,0.7,0.3,1H115.3z M120.5,42.1c0.3-0.3,0.6-0.5,1-0.5
				c0.4,0,0.7,0.1,0.8,0.4l1.2,0c-0.2-0.8-0.8-1.3-1.8-1.3c-1,0-1.8,0.5-2.4,1.3L120.5,42.1z M126.8,42.1l0.4-1.8
				c0.1-0.7,0.2-1.6,0.1-2l-1.1,0.4c0.1,0.4,0.1,0.9-0.1,1.7l-0.4,1.7H126.8z M130,42.1l0.3-1.2l-1.1,0.2l-0.2,1.1H130z M133.3,42.1
				l0.3-1.2l-1.1,0.2l-0.2,1H133.3z M136.4,42.1l0.1-0.4h1.1L138,41h-1.4c0.1-0.5,0.3-1.2,0.5-1.6l-1.1,0.2
				c-0.1,0.4-0.3,0.9-0.4,1.4h-0.7l-0.1,0.8h0.7l-0.1,0.4H136.4z M140.4,42.1l0.3-1.2l-1.1,0.2l-0.2,1.1H140.4z M143.7,42.1
				c0.3-0.3,0.6-0.5,1-0.5c0.4,0,0.7,0.1,0.9,0.4l1.2,0c-0.2-0.8-0.8-1.3-1.8-1.3c-1,0-1.8,0.5-2.4,1.3L143.7,42.1z M150.6,42.1
				c0.4-0.3,0.7-0.4,0.9-0.4c0.3,0,0.4,0.1,0.5,0.4h1.1c0,0,0-0.1,0-0.1c0-0.7-0.4-1.1-1.1-1.1c-0.7,0-1.5,0.4-2.1,1.1
				c0.1-0.5,0-0.8-0.1-1.1l-1,0.4c0.1,0.3,0.1,0.5,0.1,0.9L150.6,42.1z M156,42.1c0.1-0.3,0.6-0.5,1.1-0.5c0.5,0,0.9,0.1,1.3,0.4
				l0.4-0.8c-0.4-0.3-1.1-0.4-1.7-0.4c-1.2,0-2,0.6-2.3,1.3L156,42.1z M141.2,39.3c0-0.4-0.3-0.8-0.7-0.8c-0.4,0-0.7,0.3-0.7,0.8
				c0,0.4,0.3,0.7,0.7,0.7C140.9,40.1,141.2,39.8,141.2,39.3 M96.7,39.3c0-0.4-0.3-0.8-0.7-0.8c-0.4,0-0.8,0.3-0.8,0.8
				c0,0.4,0.3,0.7,0.8,0.7C96.3,40.1,96.7,39.8,96.7,39.3"/>
		</g>
		<polygon class="st0" points="79.9,9.3 63.8,9.3 58.4,34.6 74.5,34.6 75.6,29.2 66.1,29.2 67.2,24 74.2,24 75.3,18.9 68.3,18.9 
			69.2,14.6 78.7,14.6 		"/>
		<g>
			<path class="st0" d="M101.2,11.2l-4,4.7c-1.5-1.1-3.6-1.7-5.4-1.7c-1.3,0-3.3,0.6-3.4,2.2c-0.1,1,0.8,1.9,2.3,2.3l2.5,0.7
				c2.3,0.7,4.8,1.9,4.8,5.4c0,7-6.3,10.3-12.6,10.3c-3.8,0-6.5-0.9-8.8-2.3l4-4.7c1.6,0.9,3.8,1.6,6,1.6c1.7,0,4.1-0.6,4.1-2.8
				c0-1.9-2.9-2.2-4.9-3c-2.6-1.1-4.7-3-4.8-5.6c-0.2-6.1,6.2-9.5,11.8-9.5C96.2,8.8,99.3,9.7,101.2,11.2"/>
			<path class="st0" d="M122.3,15.2c0-4.2-3.2-5.9-8.8-5.9h-8.4l-5.4,25.3h6.5l1.9-9h2.6C119.4,25.6,122.3,19.8,122.3,15.2
				 M115,16.1c0,2-0.7,4.3-3.8,4.3h-2l1.2-5.8h2.4C114.1,14.6,115,14.9,115,16.1"/>
			<path class="st0" d="M141.3,34.6L139,9.3h-8.2l-13.5,25.3h7.1l2.4-4.9h7.4l0.3,4.9H141.3z M133.9,24.7h-4.7c0,0,4.2-9.2,4.5-10.2
				C133.6,15.5,133.9,24.7,133.9,24.7"/>
			<path class="st0" d="M47.2,15.1l1.2-5.6c-13.1-1.1-20.9,3.8-20.9,3.8c1.3-3.4,2.9-6,3.7-7.1l-4.3-3.8c-7.4,10.4-7.2,20-7.2,20
				c-1-1.2-1.5-1.9-2.3-3.2c-0.9-1.3-1.3-2.2-1.9-3.5L10,17.4c5.7,11.9,13.7,16.2,13.7,16.2c-3.6,0.6-6.7,0.5-8,0.3l-1.2,5.6
				c12.4,1.1,20.9-3.8,20.9-3.8c-0.8,2.5-2.8,5.8-3.7,7.1l4.3,3.8c7.2-10.1,7.2-20.1,7.2-20.1c2,2.2,3.6,5.4,4.3,6.8l5.5-1.8
				c-5-11.1-13.7-16.2-13.7-16.2C42.8,14.9,45.9,15,47.2,15.1 M37,24.7c0,3.1-2.5,5.6-5.6,5.6c-3.1,0-5.6-2.5-5.6-5.6
				s2.5-5.6,5.6-5.6C34.5,19.1,37,21.6,37,24.7"/>
		</g>
	</g>
</g>
</svg>
